<?xml version="1.0" encoding="iso-8859-1"?>
<!-- Generator: Adobe Illustrator 19.0.0, SVG Export Plug-In . SVG Version: 6.00 Build 0)  -->
<svg version="1.1" id="Capa_1" xmlns="http://www.w3.org/2000/svg" xmlns:xlink="http://www.w3.org/1999/xlink" x="0px" y="0px"
	 viewBox="0 0 512 512" style="enable-background:new 0 0 512 512;" xml:space="preserve">
<g>
	<g>
		<path d="M256,0C114.833,0,0,114.844,0,256s114.833,256,256,256s256-114.844,256-256S397.167,0,256,0z M192,288
			c0,17.646-14.354,32-32,32h-42.667c-17.646,0-32-14.354-32-32V181.333c0-17.646,14.354-32,32-32H160c17.646,0,32,14.354,32,32V288
			z M420.917,266.26L416,274.198v3.146c0,23.51-19.146,42.656-42.667,42.667l-40.146,0.01l-1.479,2.458l19.667,38.406
			c2.167,4.302,3.292,9.052,3.292,13.802c0,16.896-13.75,30.646-30.667,30.646h-4.708c-2.771,0-5.438-1.083-7.438-3.021
			l-75.896-73.781c-14.375-13.979-22.625-33.5-22.625-53.542V224c0-41.167,33.5-74.667,74.667-74.667h67.479
			c11.854,0,22.833,5.885,29.417,15.75l34.708,55.667c4.563,6.896,7.063,14.802,7.063,22.615
			C426.667,250.417,425.979,258.656,420.917,266.26z"/>
	</g>
</g>
<g>
</g>
<g>
</g>
<g>
</g>
<g>
</g>
<g>
</g>
<g>
</g>
<g>
</g>
<g>
</g>
<g>
</g>
<g>
</g>
<g>
</g>
<g>
</g>
<g>
</g>
<g>
</g>
<g>
</g>
</svg>
