<?xml version="1.0" encoding="iso-8859-1"?>
<!-- Generator: Adobe Illustrator 19.0.0, SVG Export Plug-In . SVG Version: 6.00 Build 0)  -->
<svg  version="1.1" id="Capa_1" xmlns="http://www.w3.org/2000/svg" xmlns:xlink="http://www.w3.org/1999/xlink" x="0px" y="0px"
	 viewBox="0 0 512 512" style="enable-background:new 0 0 512 512;" xml:space="preserve">
<g>
	<g>
		<path d="M256,0C114.833,0,0,114.844,0,256s114.833,256,256,256s256-114.844,256-256S397.167,0,256,0z M192,330.667
			c0,17.646-14.354,32-32,32h-42.667c-17.646,0-32-14.354-32-32V224c0-17.646,14.354-32,32-32H160c17.646,0,32,14.354,32,32V330.667
			z M419.438,291.5l-34.354,55.146c-6.771,10.135-17.75,16.021-29.604,16.021H288c-41.167,0-74.667-33.5-74.667-74.667v-50.99
			c0-20.042,8.25-39.563,22.625-53.542l75.896-73.781c2-1.938,4.667-3.021,7.438-3.021H324c16.917,0,30.667,13.75,30.667,30.646
			c0,4.75-1.125,9.5-3.271,13.74l-19.688,38.469l1.479,2.458l40.146,0.01C396.854,192,416,211.146,416,234.656v3.146l5.104,8.229
			c4.875,7.313,5.563,15.552,5.563,22.604C426.667,276.448,424.167,284.354,419.438,291.5z"/>
	</g>
</g>
<g>
</g>
<g>
</g>
<g>
</g>
<g>
</g>
<g>
</g>
<g>
</g>
<g>
</g>
<g>
</g>
<g>
</g>
<g>
</g>
<g>
</g>
<g>
</g>
<g>
</g>
<g>
</g>
<g>
</g>
</svg>
